<?xml version="1.0" encoding="utf-8"?>
<!-- Generator: Adobe Illustrator 16.0.1, SVG Export Plug-In . SVG Version: 6.00 Build 0)  -->
<!DOCTYPE svg PUBLIC "-//W3C//DTD SVG 1.1//EN" "http://www.w3.org/Graphics/SVG/1.1/DTD/svg11.dtd">
<svg version="1.1" id="Layer_1" xmlns="http://www.w3.org/2000/svg" xmlns:xlink="http://www.w3.org/1999/xlink" x="0px" y="0px"
	 width="300px" height="300px" viewBox="0 0 300 300" enable-background="new 0 0 300 300" xml:space="preserve">
<path fill="#030202" d="M105.117,93.14c12.412,0,22.474,10.061,22.474,22.48c0,12.413-10.062,22.473-22.474,22.473
	c-12.414,0-22.481-10.061-22.481-22.473C82.636,103.201,92.703,93.14,105.117,93.14z"/>
<path fill="#030202" d="M151.504,38.763c6.982,0,12.641,5.66,12.641,12.642c0,6.99-5.658,12.649-12.641,12.649
	c-6.99,0-12.649-5.66-12.649-12.649C138.854,44.423,144.514,38.763,151.504,38.763z"/>
<path fill="#030202" d="M197.877,70.548c9.164,0,16.594,7.428,16.594,16.592s-7.43,16.592-16.594,16.592
	c-9.156,0-16.586-7.428-16.586-16.592S188.721,70.548,197.877,70.548z"/>
<path fill="#030202" d="M151.5,13.872c-74.241,0-134.425,60.184-134.425,134.425c0,74.241,60.184,134.425,134.425,134.425
	c74.24,0,134.425-60.184,134.425-134.425C285.925,74.056,225.74,13.872,151.5,13.872z M197.093,183.451
	c0-5.654,4.579-10.213,10.206-10.213c5.646,0,10.218,4.559,10.218,10.213c0,5.653-4.572,10.211-10.218,10.211
	C201.665,193.662,197.093,189.104,197.093,183.451z M145.991,247.911c-13.961,0-25.282-11.326-25.282-25.303
	c0-13.929,11.321-25.25,25.282-25.25c13.978,0,25.3,11.321,25.3,25.25C171.303,236.585,159.969,247.911,145.991,247.911z
	 M70.771,183.45c-3.594,0-6.513-2.909-6.513-6.516c0-3.608,2.922-6.517,6.513-6.517c3.602,0,6.52,2.908,6.52,6.517
	C77.29,180.541,74.373,183.45,70.771,183.45z M222.875,148.297c-0.441-13.866-11.814-24.971-25.787-24.971
	c-13.961,0-25.334,11.105-25.775,24.971H30.075c0-32.434,12.63-62.926,35.564-85.86s53.427-35.564,85.86-35.564
	s62.926,12.63,85.86,35.564c22.934,22.934,35.564,53.427,35.564,85.86H222.875z"/>
</svg>
