<?xml version="1.0" encoding="utf-8"?>
<!-- Generator: Adobe Illustrator 16.0.1, SVG Export Plug-In . SVG Version: 6.00 Build 0)  -->
<!DOCTYPE svg PUBLIC "-//W3C//DTD SVG 1.1//EN" "http://www.w3.org/Graphics/SVG/1.1/DTD/svg11.dtd">
<svg version="1.1" id="Layer_1" xmlns="http://www.w3.org/2000/svg" xmlns:xlink="http://www.w3.org/1999/xlink" x="0px" y="0px"
	 width="300px" height="300px" viewBox="0 0 300 300" enable-background="new 0 0 300 300" xml:space="preserve">
<path fill="#FFFFFF" d="M103.117,94.14c12.412,0,22.474,10.061,22.474,22.48c0,12.413-10.062,22.473-22.474,22.473
	c-12.414,0-22.481-10.061-22.481-22.473C80.636,104.201,90.703,94.14,103.117,94.14z"/>
<path fill="#FFFFFF" d="M149.504,39.763c6.982,0,12.641,5.66,12.641,12.642c0,6.99-5.658,12.649-12.641,12.649
	c-6.99,0-12.649-5.66-12.649-12.649C136.854,45.423,142.514,39.763,149.504,39.763z"/>
<path fill="#FFFFFF" d="M195.877,71.548c9.164,0,16.594,7.428,16.594,16.592s-7.43,16.592-16.594,16.592
	c-9.156,0-16.586-7.428-16.586-16.592S186.721,71.548,195.877,71.548z"/>
<path fill="#FFFFFF" d="M149.5,14.872c-74.241,0-134.425,60.184-134.425,134.425c0,74.241,60.184,134.426,134.425,134.426
	c74.24,0,134.425-60.185,134.425-134.426C283.925,75.056,223.74,14.872,149.5,14.872z M195.093,184.451
	c0-5.654,4.579-10.213,10.206-10.213c5.646,0,10.219,4.559,10.219,10.213c0,5.652-4.572,10.211-10.219,10.211
	C199.665,194.662,195.093,190.104,195.093,184.451z M143.991,248.911c-13.961,0-25.282-11.326-25.282-25.304
	c0-13.928,11.321-25.25,25.282-25.25c13.978,0,25.3,11.322,25.3,25.25C169.303,237.585,157.969,248.911,143.991,248.911z
	 M68.771,184.45c-3.594,0-6.513-2.909-6.513-6.517s2.922-6.517,6.513-6.517c3.602,0,6.52,2.908,6.52,6.517
	C75.29,181.541,72.373,184.45,68.771,184.45z M220.875,149.297c-0.441-13.866-11.814-24.971-25.787-24.971
	c-13.961,0-25.334,11.105-25.775,24.971H28.075c0-32.434,12.63-62.926,35.564-85.86s53.427-35.564,85.86-35.564
	c32.433,0,62.926,12.63,85.86,35.564c22.934,22.934,35.563,53.427,35.563,85.86H220.875z"/>
</svg>
