<?xml version="1.0" encoding="utf-8"?>
<!-- Generator: Adobe Illustrator 16.0.0, SVG Export Plug-In . SVG Version: 6.00 Build 0)  -->
<!DOCTYPE svg PUBLIC "-//W3C//DTD SVG 1.1//EN" "http://www.w3.org/Graphics/SVG/1.1/DTD/svg11.dtd">
<svg version="1.1" id="Layer_1" xmlns="http://www.w3.org/2000/svg" xmlns:xlink="http://www.w3.org/1999/xlink" x="0px" y="0px"
	 width="51px" height="64px" viewBox="0 0 51 64" enable-background="new 0 0 51 64" xml:space="preserve">
<path fill="#7A7A7A" d="M18.779,46.977c0.597-0.598,1.323-0.896,2.176-0.896s1.621,0.299,2.304,0.896
	c1.365,1.45,1.365,2.943,0,4.479l-2.688,2.56c-2.389,2.39-5.205,3.584-8.448,3.584c-3.328,0-6.187-1.194-8.576-3.584
	c-2.389-2.389-3.584-5.205-3.584-8.447c0-3.328,1.195-6.188,3.584-8.576l9.472-9.472c2.987-2.901,6.059-4.544,9.216-4.928
	c3.157-0.384,5.888,0.533,8.192,2.752c0.683,0.683,1.024,1.451,1.024,2.304s-0.342,1.621-1.024,2.304
	c-1.536,1.365-3.028,1.365-4.48,0c-2.133-2.048-4.949-1.323-8.448,2.176l-9.472,9.345c-1.109,1.108-1.664,2.475-1.664,4.096
	s0.555,2.943,1.664,3.968c1.109,1.108,2.453,1.664,4.032,1.664s2.923-0.556,4.032-1.664L18.779,46.977 M47.578,10.24
	c2.389,2.389,3.584,5.205,3.584,8.448c0,3.328-1.195,6.187-3.584,8.576L37.466,37.376c-3.157,3.072-6.356,4.608-9.6,4.608
	c-2.645,0-5.035-1.067-7.168-3.2c-0.597-0.597-0.896-1.323-0.896-2.177c0-0.853,0.299-1.621,0.896-2.303
	c0.597-0.598,1.344-0.896,2.24-0.896s1.643,0.299,2.24,0.896c2.132,2.047,4.736,1.535,7.808-1.537l10.111-9.983
	c1.195-1.195,1.793-2.56,1.793-4.096c0-1.621-0.598-2.944-1.793-3.968c-1.023-1.109-2.219-1.771-3.584-1.984
	c-1.365-0.213-2.645,0.235-3.84,1.344l-3.199,3.2c-0.684,0.597-1.451,0.896-2.305,0.896s-1.579-0.299-2.176-0.896
	c-1.451-1.451-1.451-2.944,0-4.48l3.199-3.2c2.305-2.304,5.014-3.392,8.129-3.264S45.189,7.765,47.578,10.24L47.578,10.24"/>
</svg>
